<svg xmlns="http://www.w3.org/2000/svg" xmlns:xlink="http://www.w3.org/1999/xlink" viewBox="0 0 68 47" fill="#fff" fill-rule="evenodd" stroke="#000" stroke-linecap="round" stroke-linejoin="round"><style><![CDATA[.B{fill:#0f73a0}.C{stroke-linejoin:miter}.D{stroke-width:.787}.E{stroke-linecap:square}]]></style><use xlink:href="#A" x=".5" y=".5"/><symbol id="A" overflow="visible"><g stroke="#fff" class="C"><path d="M65.335 0l1.574 1.968-4.33 24.402-1.968-1.18L65.335 0z" class="B D"/><path d="M18.105 25.19l1.574 1.18h42.9l-1.968-1.18H18.105z" fill="#000" stroke-width=".394"/></g><use xlink:href="#C" stroke="none" class="B"/><use xlink:href="#C" stroke="#fff" fill="none" class="C D"/><path d="M0 40.54v4.723h46.05V40.54H0z" stroke="none" class="B"/><g stroke="#fff"><g class="C D"><path d="M0 40.54v4.723h46.05V40.54H0" fill="none" class="E"/><g class="B"><path d="M18.498 27.157h42.507L46.05 40.54H0l18.498-13.382zm42.113-1.968L65.335 0h-41.72l-5.5 25.19h42.507z"/><path d="M57.07 22.04L60.612 3.15H26.764L22.828 22.04H57.07z"/></g></g><g fill="none" class="E"><path d="M19.286 27.55L8.66 36.2m14.17-8.66L12.2 36.2m14.17-8.66L15.744 36.2m14.17-8.66l-11.02 8.66m14.17-8.66L22.434 36.2m14.17-8.66L25.977 36.2m14.17-8.66L29.52 36.2m14.17-8.66l-11.02 8.66m14.17-8.66L36.2 36.2m14.17-8.66L39.752 36.2m14.17-8.66L43.294 36.2m14.17-8.66l-11.02 8.66"/><path d="M9.84 35.423h38.177m-35.422-1.968h37.4m-35.03-1.968H52.74M17.318 29.52h37.784"/></g></g></symbol><defs ><path id="C" d="M61 27.163V31.1l-1.18 1.18s-2.755.787-1.968 2.36L46.044 45.268v-4.723z"/></defs></svg>