<svg xmlns="http://www.w3.org/2000/svg" xmlns:xlink="http://www.w3.org/1999/xlink" viewBox="0 0 150.786 150.786" fill="#fff" fill-rule="evenodd" stroke="#000" stroke-linecap="round" stroke-linejoin="round"><use xlink:href="#A" x=".893" y=".893"/><symbol id="A" overflow="visible"><path d="M74.107 0C33.18 0 0 33.18 0 74.107s33.18 74.107 74.107 74.107 74.107-33.18 74.107-74.107S115.036 0 74.107 0zm55.848 42.96c2.632 4.702 4.646 9.714 6.007 14.934h-24.914a89.27 89.27 0 0 0-4.07-14.934h22.977zM104.207 84.76l-6.98-21.273 4.454-1.968 4.964 16.564 3.845-10.577h4.9l3.845 10.577 4.964-16.564 4.454 1.968-6.98 21.273-4.384 1.938-4.348-14.513-4.348 14.513-4.384-1.937zm.52 5.563a82.53 82.53 0 0 1-4.389 14.866H77.21V90.322h27.518zm14.577-61.41a64.52 64.52 0 0 1 6.684 7.846h-21.575a85.92 85.92 0 0 0-17.746-25.339c12.286 2.436 23.58 8.44 32.637 17.496zM77.21 11.232c8.732 7.26 15.496 15.988 20.298 25.52H77.21v-25.52zm0 31.727h23.104c1.946 4.843 3.418 9.846 4.416 14.934H77.212V42.96zM71.004 11.31v25.443H50.8a79.75 79.75 0 0 1 20.204-25.443zM43.58 57.893c1-5.086 2.468-10.09 4.416-14.934h23.01v14.934H43.58zm7.407 5.593l-6.98 21.273-4.384 1.938-4.348-14.513-4.348 14.513-4.384-1.937-6.98-21.273 4.452-1.968 4.964 16.564 3.845-10.577h4.9l3.845 10.577 4.964-16.564 4.454 1.968zM28.91 28.91c9.084-9.084 20.42-15.096 32.75-17.5-7.596 7.48-13.518 16.1-17.768 25.363H22.225a64.8 64.8 0 0 1 6.684-7.846zM18.263 42.964h23.07a89.2 89.2 0 0 0-4.07 14.934h-25.01a63.16 63.16 0 0 1 6.007-14.934zm-.036 62.227a63.18 63.18 0 0 1-5.97-14.866h25.007c.916 5.048 2.263 10.025 4.043 14.866H18.223zm10.686 14.118a64.78 64.78 0 0 1-6.734-7.912h21.688a85.58 85.58 0 0 0 17.798 25.428c-12.33-2.42-23.668-8.432-32.75-17.518zm42.096 17.598a79.75 79.75 0 0 1-20.243-25.514h20.24v25.51zm0-31.714H47.973a82.97 82.97 0 0 1-4.389-14.866h27.43v14.866zm3.068-33.004L69.73 86.702l-4.384-1.937-6.98-21.273 4.454-1.968 4.964 16.564L71.63 67.51h4.9l3.845 10.577 4.964-16.564 4.454 1.968-6.98 21.273-4.384 1.938L74.08 72.19zm3.134 64.775v-25.572h20.332c-4.82 9.56-11.58 18.31-20.332 25.59zm42.096-17.678c-9.054 9.053-20.35 15.06-32.636 17.495 7.604-7.49 13.53-16.13 17.777-25.41h21.593a65.04 65.04 0 0 1-6.732 7.914zm10.686-14.118h-22.99c1.78-4.84 3.125-9.822 4.043-14.866h24.914a63.16 63.16 0 0 1-5.97 14.866z" fill="#00679b" stroke="none"/></symbol></svg>