<svg xmlns="http://www.w3.org/2000/svg" xmlns:xlink="http://www.w3.org/1999/xlink" viewBox="0 0 59 53" fill="#fff" fill-rule="evenodd" stroke="#000" stroke-linecap="round" stroke-linejoin="round"><style><![CDATA[.B{stroke:#fff}.C{stroke-linejoin:miter}.D{fill:#0f73a0}.E{stroke-width:.787}.F{fill:#0b719f}.G{stroke-linecap:square}]]></style><use xlink:href="#A" x=".5" y=".5"/><symbol id="A" overflow="visible"><path d="M49.573 44.46v-9.443H0v9.443h49.573z" class="B C D E"/><path d="M34.23 40.13h12.6z" stroke="none" class="F"/><path d="M34.23 40.13h12.6" fill="none" class="B C E G"/><path d="M34.23 39.737h12.6z" stroke="none" class="F"/><g class="B C E"><path d="M34.23 39.737h12.6" fill="none" class="G"/><g class="D"><path d="M57.835 35.41v-8.262l-8.262 7.87v9.443l8.262-9.05zM40.917 51.933v-1.967l4.328-6.295v3.934l-4.328 4.328z"/><path d="M40.917 49.966v1.967H1.18v-1.967h39.737z"/><path d="M40.917 49.966H1.18l4.328-6.295h39.737l-4.328 6.295zm16.918-22.82H8.262L0 35.016h49.573l8.262-7.87z"/><path d="M42.885 30.295V5.508H9.05v24.787h33.836z"/></g></g><use xlink:href="#C" stroke="none" class="D"/><g class="B C E"><use xlink:href="#C" fill="none"/><path d="M48.786 0h-34.23L9.05 5.508h33.836L48.786 0z" class="D"/><path d="M48.787 25.18V0l-5.9 5.508v24.787l5.9-5.115z" class="F"/></g></symbol><defs ><path id="C" d="M11.798 11.023c0-2.754 2.36-3.148 2.36-3.148h22.82c3.148 0 3.148 3.148 3.148 3.148v14.164c0 1.574-2.754 2.36-2.754 2.36h-22.82c-1.967 0-2.754-2.36-2.754-2.36z"/></defs></svg>