<svg xmlns="http://www.w3.org/2000/svg" xmlns:xlink="http://www.w3.org/1999/xlink" viewBox="0 0 77 39" fill="#fff" fill-rule="evenodd" stroke="#000" stroke-linecap="round" stroke-linejoin="round"><use xlink:href="#A" x=".5" y=".5"/><symbol id="A" overflow="visible"><g stroke="#fff" stroke-linejoin="miter" fill="#126d99" stroke-width=".787"><path d="M56.662 36.594v-18.1H.394v18.1h56.268z"/><path d="M0 18.494L22.822 0h52.334L56.268 18.494H0zM56.662 37.38l18.494-20.46V0L56.662 18.494V37.38z"/></g><path d="M33.053 13.772l-1.18.787H18.1l-1.574 1.574-3.935-1.574 7.87-2.36-1.574 1.574h14.166zM44.07 6.69L42.9 7.87H29.118l-1.574 1.18L23.6 7.476l7.87-1.967-1.574 1.18H44.07zm-8.657 4.722l1.18-.787H50.76l1.18-1.574 3.935 1.574-7.476 2.36 1.18-1.574H35.414zM42.9 4.328l1.18-.787h13.772l1.574-1.574 3.935 1.967-7.87 1.967 1.574-1.574H42.9z" stroke="none"/></symbol></svg>